<mxfile host="app.diagrams.net" modified="2024-04-17T07:29:06.010Z" agent="Mozilla/5.0 (Windows NT 10.0; Win64; x64) AppleWebKit/537.36 (KHTML, like Gecko) Chrome/123.0.0.0 Safari/537.36" etag="bKY5G7LQvSjA-KrIhQ9V" version="24.2.5" type="device">
  <diagram name="Page-1" id="luu7nsKz-WrON0-uHyIJ">
    <mxGraphModel dx="1038" dy="537" grid="1" gridSize="10" guides="1" tooltips="1" connect="1" arrows="1" fold="1" page="1" pageScale="1" pageWidth="850" pageHeight="1100" math="0" shadow="0">
      <root>
        <mxCell id="0" />
        <mxCell id="1" parent="0" />
        <mxCell id="55r9cp8Pj4-Tj-q5VYyH-2" value="Login&lt;br style=&quot;border-color: var(--border-color);&quot;&gt;&lt;span style=&quot;&quot;&gt;1.0&lt;/span&gt;" style="ellipse;whiteSpace=wrap;html=1;" parent="1" vertex="1">
          <mxGeometry x="340" y="229" width="120" height="70" as="geometry" />
        </mxCell>
        <mxCell id="55r9cp8Pj4-Tj-q5VYyH-3" value="Manage employees details&lt;br style=&quot;border-color: var(--border-color);&quot;&gt;&lt;span style=&quot;&quot;&gt;2.0&lt;/span&gt;" style="ellipse;whiteSpace=wrap;html=1;" parent="1" vertex="1">
          <mxGeometry x="340" y="320" width="120" height="70" as="geometry" />
        </mxCell>
        <mxCell id="55r9cp8Pj4-Tj-q5VYyH-4" value="Manage employees&lt;br style=&quot;border-color: var(--border-color);&quot;&gt;&lt;span style=&quot;&quot;&gt;3.0&lt;/span&gt;" style="ellipse;whiteSpace=wrap;html=1;" parent="1" vertex="1">
          <mxGeometry x="340" y="409" width="120" height="70" as="geometry" />
        </mxCell>
        <mxCell id="55r9cp8Pj4-Tj-q5VYyH-5" value="ADMIN" style="whiteSpace=wrap;html=1;aspect=fixed;" parent="1" vertex="1">
          <mxGeometry x="30" y="390" width="110" height="110" as="geometry" />
        </mxCell>
        <mxCell id="55r9cp8Pj4-Tj-q5VYyH-6" value="Manage employee&lt;br style=&quot;border-color: var(--border-color);&quot;&gt;&lt;span style=&quot;&quot;&gt;attendance&lt;/span&gt;&lt;br style=&quot;border-color: var(--border-color);&quot;&gt;&lt;span style=&quot;&quot;&gt;4.0&lt;/span&gt;" style="ellipse;whiteSpace=wrap;html=1;" parent="1" vertex="1">
          <mxGeometry x="339" y="499" width="120" height="70" as="geometry" />
        </mxCell>
        <mxCell id="55r9cp8Pj4-Tj-q5VYyH-7" value="Manage task&lt;br style=&quot;border-color: var(--border-color);&quot;&gt;&lt;span style=&quot;&quot;&gt;5.0&lt;/span&gt;" style="ellipse;whiteSpace=wrap;html=1;" parent="1" vertex="1">
          <mxGeometry x="339" y="591" width="120" height="70" as="geometry" />
        </mxCell>
        <mxCell id="55r9cp8Pj4-Tj-q5VYyH-16" value="" style="endArrow=classic;html=1;rounded=0;exitX=0.364;exitY=0;exitDx=0;exitDy=0;exitPerimeter=0;entryX=0.039;entryY=0.3;entryDx=0;entryDy=0;entryPerimeter=0;" parent="1" source="55r9cp8Pj4-Tj-q5VYyH-5" target="55r9cp8Pj4-Tj-q5VYyH-2" edge="1">
          <mxGeometry width="50" height="50" relative="1" as="geometry">
            <mxPoint x="70" y="380" as="sourcePoint" />
            <mxPoint x="330" y="170" as="targetPoint" />
            <Array as="points">
              <mxPoint x="70" y="250" />
            </Array>
          </mxGeometry>
        </mxCell>
        <mxCell id="55r9cp8Pj4-Tj-q5VYyH-17" value="" style="endArrow=classic;html=1;rounded=0;entryX=0.546;entryY=-0.001;entryDx=0;entryDy=0;entryPerimeter=0;exitX=0.008;exitY=0.583;exitDx=0;exitDy=0;exitPerimeter=0;" parent="1" source="55r9cp8Pj4-Tj-q5VYyH-2" target="55r9cp8Pj4-Tj-q5VYyH-5" edge="1">
          <mxGeometry width="50" height="50" relative="1" as="geometry">
            <mxPoint x="350" y="220" as="sourcePoint" />
            <mxPoint x="80" y="380" as="targetPoint" />
            <Array as="points">
              <mxPoint x="90" y="270" />
            </Array>
          </mxGeometry>
        </mxCell>
        <mxCell id="55r9cp8Pj4-Tj-q5VYyH-18" value="" style="endArrow=classic;html=1;rounded=0;exitX=0.726;exitY=-0.002;exitDx=0;exitDy=0;exitPerimeter=0;entryX=0.045;entryY=0.286;entryDx=0;entryDy=0;entryPerimeter=0;" parent="1" source="55r9cp8Pj4-Tj-q5VYyH-5" target="55r9cp8Pj4-Tj-q5VYyH-3" edge="1">
          <mxGeometry width="50" height="50" relative="1" as="geometry">
            <mxPoint x="102.50999999999999" y="390.00000000000006" as="sourcePoint" />
            <mxPoint x="340" y="350" as="targetPoint" />
            <Array as="points">
              <mxPoint x="110" y="340" />
            </Array>
          </mxGeometry>
        </mxCell>
        <mxCell id="55r9cp8Pj4-Tj-q5VYyH-19" value="" style="endArrow=classic;html=1;rounded=0;exitX=0.003;exitY=0.566;exitDx=0;exitDy=0;exitPerimeter=0;entryX=0.908;entryY=-0.002;entryDx=0;entryDy=0;entryPerimeter=0;" parent="1" source="55r9cp8Pj4-Tj-q5VYyH-3" target="55r9cp8Pj4-Tj-q5VYyH-5" edge="1">
          <mxGeometry width="50" height="50" relative="1" as="geometry">
            <mxPoint x="240" y="350" as="sourcePoint" />
            <mxPoint x="110" y="390" as="targetPoint" />
            <Array as="points">
              <mxPoint x="130" y="360" />
            </Array>
          </mxGeometry>
        </mxCell>
        <mxCell id="55r9cp8Pj4-Tj-q5VYyH-20" value="" style="endArrow=classic;html=1;rounded=0;exitX=0.997;exitY=0.361;exitDx=0;exitDy=0;exitPerimeter=0;entryX=0.038;entryY=0.298;entryDx=0;entryDy=0;entryPerimeter=0;" parent="1" source="55r9cp8Pj4-Tj-q5VYyH-5" target="55r9cp8Pj4-Tj-q5VYyH-4" edge="1">
          <mxGeometry width="50" height="50" relative="1" as="geometry">
            <mxPoint x="310" y="460" as="sourcePoint" />
            <mxPoint x="340" y="410" as="targetPoint" />
          </mxGeometry>
        </mxCell>
        <mxCell id="55r9cp8Pj4-Tj-q5VYyH-21" value="" style="endArrow=classic;html=1;rounded=0;entryX=0.999;entryY=0.542;entryDx=0;entryDy=0;entryPerimeter=0;exitX=0.005;exitY=0.58;exitDx=0;exitDy=0;exitPerimeter=0;" parent="1" source="55r9cp8Pj4-Tj-q5VYyH-4" target="55r9cp8Pj4-Tj-q5VYyH-5" edge="1">
          <mxGeometry width="50" height="50" relative="1" as="geometry">
            <mxPoint x="310" y="460" as="sourcePoint" />
            <mxPoint x="360" y="410" as="targetPoint" />
          </mxGeometry>
        </mxCell>
        <mxCell id="55r9cp8Pj4-Tj-q5VYyH-24" value="" style="endArrow=classic;html=1;rounded=0;exitX=0.91;exitY=1;exitDx=0;exitDy=0;exitPerimeter=0;entryX=0.001;entryY=0.442;entryDx=0;entryDy=0;entryPerimeter=0;" parent="1" source="55r9cp8Pj4-Tj-q5VYyH-5" target="55r9cp8Pj4-Tj-q5VYyH-6" edge="1">
          <mxGeometry width="50" height="50" relative="1" as="geometry">
            <mxPoint x="220" y="640" as="sourcePoint" />
            <mxPoint x="340" y="530" as="targetPoint" />
            <Array as="points">
              <mxPoint x="130" y="530" />
            </Array>
          </mxGeometry>
        </mxCell>
        <mxCell id="55r9cp8Pj4-Tj-q5VYyH-25" value="" style="endArrow=classic;html=1;rounded=0;entryX=0.726;entryY=1;entryDx=0;entryDy=0;entryPerimeter=0;exitX=0.054;exitY=0.727;exitDx=0;exitDy=0;exitPerimeter=0;" parent="1" source="55r9cp8Pj4-Tj-q5VYyH-6" target="55r9cp8Pj4-Tj-q5VYyH-5" edge="1">
          <mxGeometry width="50" height="50" relative="1" as="geometry">
            <mxPoint x="330" y="540" as="sourcePoint" />
            <mxPoint x="120" y="500" as="targetPoint" />
            <Array as="points">
              <mxPoint x="110" y="550" />
            </Array>
          </mxGeometry>
        </mxCell>
        <mxCell id="55r9cp8Pj4-Tj-q5VYyH-26" value="" style="endArrow=classic;html=1;rounded=0;exitX=0.544;exitY=0.999;exitDx=0;exitDy=0;exitPerimeter=0;entryX=0.006;entryY=0.412;entryDx=0;entryDy=0;entryPerimeter=0;" parent="1" source="55r9cp8Pj4-Tj-q5VYyH-5" target="55r9cp8Pj4-Tj-q5VYyH-7" edge="1">
          <mxGeometry width="50" height="50" relative="1" as="geometry">
            <mxPoint x="70" y="610" as="sourcePoint" />
            <mxPoint x="330" y="630" as="targetPoint" />
            <Array as="points">
              <mxPoint x="90" y="620" />
            </Array>
          </mxGeometry>
        </mxCell>
        <mxCell id="55r9cp8Pj4-Tj-q5VYyH-27" value="" style="endArrow=classic;html=1;rounded=0;entryX=0.359;entryY=0.994;entryDx=0;entryDy=0;entryPerimeter=0;exitX=0.037;exitY=0.697;exitDx=0;exitDy=0;exitPerimeter=0;" parent="1" source="55r9cp8Pj4-Tj-q5VYyH-7" target="55r9cp8Pj4-Tj-q5VYyH-5" edge="1">
          <mxGeometry width="50" height="50" relative="1" as="geometry">
            <mxPoint x="330" y="650" as="sourcePoint" />
            <mxPoint x="70" y="500" as="targetPoint" />
            <Array as="points">
              <mxPoint x="70" y="640" />
            </Array>
          </mxGeometry>
        </mxCell>
        <mxCell id="55r9cp8Pj4-Tj-q5VYyH-33" value="" style="endArrow=classic;html=1;rounded=0;exitX=0.96;exitY=0.302;exitDx=0;exitDy=0;exitPerimeter=0;" parent="1" source="55r9cp8Pj4-Tj-q5VYyH-4" edge="1">
          <mxGeometry width="50" height="50" relative="1" as="geometry">
            <mxPoint x="460" y="439" as="sourcePoint" />
            <mxPoint x="600" y="430" as="targetPoint" />
          </mxGeometry>
        </mxCell>
        <mxCell id="55r9cp8Pj4-Tj-q5VYyH-34" value="" style="endArrow=classic;html=1;rounded=0;exitX=0.997;exitY=0.441;exitDx=0;exitDy=0;exitPerimeter=0;" parent="1" source="55r9cp8Pj4-Tj-q5VYyH-6" edge="1">
          <mxGeometry width="50" height="50" relative="1" as="geometry">
            <mxPoint x="460" y="530" as="sourcePoint" />
            <mxPoint x="600" y="530" as="targetPoint" />
          </mxGeometry>
        </mxCell>
        <mxCell id="55r9cp8Pj4-Tj-q5VYyH-35" value="" style="endArrow=classic;html=1;rounded=0;exitX=0.994;exitY=0.412;exitDx=0;exitDy=0;exitPerimeter=0;" parent="1" source="55r9cp8Pj4-Tj-q5VYyH-7" edge="1">
          <mxGeometry width="50" height="50" relative="1" as="geometry">
            <mxPoint x="460" y="623" as="sourcePoint" />
            <mxPoint x="600" y="620" as="targetPoint" />
          </mxGeometry>
        </mxCell>
        <mxCell id="55r9cp8Pj4-Tj-q5VYyH-38" value="" style="endArrow=classic;html=1;rounded=0;entryX=0.994;entryY=0.586;entryDx=0;entryDy=0;entryPerimeter=0;" parent="1" target="55r9cp8Pj4-Tj-q5VYyH-2" edge="1">
          <mxGeometry width="50" height="50" relative="1" as="geometry">
            <mxPoint x="600" y="270" as="sourcePoint" />
            <mxPoint x="460" y="274" as="targetPoint" />
            <Array as="points">
              <mxPoint x="513" y="270" />
            </Array>
          </mxGeometry>
        </mxCell>
        <mxCell id="55r9cp8Pj4-Tj-q5VYyH-39" value="" style="endArrow=none;html=1;rounded=0;" parent="1" edge="1">
          <mxGeometry width="50" height="50" relative="1" as="geometry">
            <mxPoint x="600" y="240" as="sourcePoint" />
            <mxPoint x="720" y="240" as="targetPoint" />
          </mxGeometry>
        </mxCell>
        <mxCell id="55r9cp8Pj4-Tj-q5VYyH-40" value="" style="endArrow=none;html=1;rounded=0;" parent="1" edge="1">
          <mxGeometry width="50" height="50" relative="1" as="geometry">
            <mxPoint x="600" y="280" as="sourcePoint" />
            <mxPoint x="720" y="280" as="targetPoint" />
          </mxGeometry>
        </mxCell>
        <mxCell id="55r9cp8Pj4-Tj-q5VYyH-41" value="" style="endArrow=classic;html=1;rounded=0;entryX=0.995;entryY=0.571;entryDx=0;entryDy=0;entryPerimeter=0;" parent="1" target="55r9cp8Pj4-Tj-q5VYyH-3" edge="1">
          <mxGeometry width="50" height="50" relative="1" as="geometry">
            <mxPoint x="600" y="360" as="sourcePoint" />
            <mxPoint x="460" y="359.76" as="targetPoint" />
          </mxGeometry>
        </mxCell>
        <mxCell id="55r9cp8Pj4-Tj-q5VYyH-42" value="" style="endArrow=none;html=1;rounded=0;" parent="1" edge="1">
          <mxGeometry width="50" height="50" relative="1" as="geometry">
            <mxPoint x="600" y="330" as="sourcePoint" />
            <mxPoint x="720" y="330" as="targetPoint" />
          </mxGeometry>
        </mxCell>
        <mxCell id="55r9cp8Pj4-Tj-q5VYyH-43" value="" style="endArrow=none;html=1;rounded=0;" parent="1" edge="1">
          <mxGeometry width="50" height="50" relative="1" as="geometry">
            <mxPoint x="600" y="370" as="sourcePoint" />
            <mxPoint x="720" y="370" as="targetPoint" />
          </mxGeometry>
        </mxCell>
        <mxCell id="55r9cp8Pj4-Tj-q5VYyH-44" value="" style="endArrow=classic;html=1;rounded=0;entryX=0.992;entryY=0.59;entryDx=0;entryDy=0;entryPerimeter=0;" parent="1" target="55r9cp8Pj4-Tj-q5VYyH-4" edge="1">
          <mxGeometry width="50" height="50" relative="1" as="geometry">
            <mxPoint x="600" y="450" as="sourcePoint" />
            <mxPoint x="460" y="459" as="targetPoint" />
          </mxGeometry>
        </mxCell>
        <mxCell id="55r9cp8Pj4-Tj-q5VYyH-45" value="" style="endArrow=none;html=1;rounded=0;" parent="1" edge="1">
          <mxGeometry width="50" height="50" relative="1" as="geometry">
            <mxPoint x="600" y="421" as="sourcePoint" />
            <mxPoint x="720" y="421" as="targetPoint" />
          </mxGeometry>
        </mxCell>
        <mxCell id="55r9cp8Pj4-Tj-q5VYyH-46" value="" style="endArrow=none;html=1;rounded=0;" parent="1" edge="1">
          <mxGeometry width="50" height="50" relative="1" as="geometry">
            <mxPoint x="600" y="461" as="sourcePoint" />
            <mxPoint x="720" y="461" as="targetPoint" />
          </mxGeometry>
        </mxCell>
        <mxCell id="55r9cp8Pj4-Tj-q5VYyH-47" value="" style="endArrow=classic;html=1;rounded=0;entryX=0.948;entryY=0.728;entryDx=0;entryDy=0;entryPerimeter=0;" parent="1" target="55r9cp8Pj4-Tj-q5VYyH-6" edge="1">
          <mxGeometry width="50" height="50" relative="1" as="geometry">
            <mxPoint x="600" y="550" as="sourcePoint" />
            <mxPoint x="445" y="553.86" as="targetPoint" />
          </mxGeometry>
        </mxCell>
        <mxCell id="55r9cp8Pj4-Tj-q5VYyH-48" value="" style="endArrow=none;html=1;rounded=0;" parent="1" edge="1">
          <mxGeometry width="50" height="50" relative="1" as="geometry">
            <mxPoint x="600" y="520" as="sourcePoint" />
            <mxPoint x="720" y="520" as="targetPoint" />
          </mxGeometry>
        </mxCell>
        <mxCell id="55r9cp8Pj4-Tj-q5VYyH-49" value="" style="endArrow=none;html=1;rounded=0;" parent="1" edge="1">
          <mxGeometry width="50" height="50" relative="1" as="geometry">
            <mxPoint x="600" y="560" as="sourcePoint" />
            <mxPoint x="720" y="560" as="targetPoint" />
          </mxGeometry>
        </mxCell>
        <mxCell id="55r9cp8Pj4-Tj-q5VYyH-50" value="" style="endArrow=classic;html=1;rounded=0;entryX=0.963;entryY=0.7;entryDx=0;entryDy=0;entryPerimeter=0;" parent="1" target="55r9cp8Pj4-Tj-q5VYyH-7" edge="1">
          <mxGeometry width="50" height="50" relative="1" as="geometry">
            <mxPoint x="600" y="640" as="sourcePoint" />
            <mxPoint x="460" y="641.6341463414634" as="targetPoint" />
          </mxGeometry>
        </mxCell>
        <mxCell id="55r9cp8Pj4-Tj-q5VYyH-51" value="" style="endArrow=none;html=1;rounded=0;" parent="1" edge="1">
          <mxGeometry width="50" height="50" relative="1" as="geometry">
            <mxPoint x="600" y="610" as="sourcePoint" />
            <mxPoint x="720" y="610" as="targetPoint" />
          </mxGeometry>
        </mxCell>
        <mxCell id="55r9cp8Pj4-Tj-q5VYyH-52" value="" style="endArrow=none;html=1;rounded=0;" parent="1" edge="1">
          <mxGeometry width="50" height="50" relative="1" as="geometry">
            <mxPoint x="600" y="650" as="sourcePoint" />
            <mxPoint x="720" y="650" as="targetPoint" />
          </mxGeometry>
        </mxCell>
        <mxCell id="3neaD_Rnh4ogwWbG_XFk-2" value="Acknowledgement" style="text;html=1;align=center;verticalAlign=middle;resizable=0;points=[];autosize=1;strokeColor=none;fillColor=none;" parent="1" vertex="1">
          <mxGeometry x="140" y="245" width="120" height="30" as="geometry" />
        </mxCell>
        <mxCell id="3neaD_Rnh4ogwWbG_XFk-4" value="Acknowledgement" style="text;html=1;align=center;verticalAlign=middle;resizable=0;points=[];autosize=1;strokeColor=none;fillColor=none;" parent="1" vertex="1">
          <mxGeometry x="155" y="334" width="120" height="30" as="geometry" />
        </mxCell>
        <mxCell id="3neaD_Rnh4ogwWbG_XFk-7" value="Acknowledgement" style="text;html=1;align=center;verticalAlign=middle;resizable=0;points=[];autosize=1;strokeColor=none;fillColor=none;" parent="1" vertex="1">
          <mxGeometry x="165" y="424" width="120" height="30" as="geometry" />
        </mxCell>
        <mxCell id="3neaD_Rnh4ogwWbG_XFk-9" value="Acknowledgement" style="text;html=1;align=center;verticalAlign=middle;resizable=0;points=[];autosize=1;strokeColor=none;fillColor=none;" parent="1" vertex="1">
          <mxGeometry x="155" y="524" width="120" height="30" as="geometry" />
        </mxCell>
        <mxCell id="3neaD_Rnh4ogwWbG_XFk-11" value="Acknowledgement" style="text;html=1;align=center;verticalAlign=middle;resizable=0;points=[];autosize=1;strokeColor=none;fillColor=none;" parent="1" vertex="1">
          <mxGeometry x="132" y="615" width="120" height="30" as="geometry" />
        </mxCell>
        <mxCell id="q85woy2wFSUG4Y5lhOS7-1" value="" style="endArrow=classic;html=1;rounded=0;exitX=0.96;exitY=0.298;exitDx=0;exitDy=0;exitPerimeter=0;" parent="1" source="55r9cp8Pj4-Tj-q5VYyH-2" edge="1">
          <mxGeometry width="50" height="50" relative="1" as="geometry">
            <mxPoint x="460" y="253.97" as="sourcePoint" />
            <mxPoint x="600" y="250" as="targetPoint" />
          </mxGeometry>
        </mxCell>
        <mxCell id="gJ34AJBLGdgjErx7gHwl-1" value="" style="endArrow=classic;html=1;rounded=0;exitX=0.952;exitY=0.285;exitDx=0;exitDy=0;exitPerimeter=0;" parent="1" source="55r9cp8Pj4-Tj-q5VYyH-3" edge="1">
          <mxGeometry width="50" height="50" relative="1" as="geometry">
            <mxPoint x="460" y="342" as="sourcePoint" />
            <mxPoint x="600" y="340" as="targetPoint" />
          </mxGeometry>
        </mxCell>
        <mxCell id="uDLL2XIWMKUqhUMbjHO1-1" value="&lt;span style=&quot;font-size: 12px;&quot;&gt;Manage Employee&lt;/span&gt;" style="text;html=1;align=center;verticalAlign=middle;resizable=0;points=[];autosize=1;strokeColor=none;fillColor=none;fontSize=16;" parent="1" vertex="1">
          <mxGeometry x="175" y="403" width="120" height="30" as="geometry" />
        </mxCell>
        <mxCell id="uDLL2XIWMKUqhUMbjHO1-2" value="&lt;span style=&quot;font-size: 12px;&quot;&gt;Email/Password&lt;/span&gt;" style="text;html=1;align=center;verticalAlign=middle;resizable=0;points=[];autosize=1;strokeColor=none;fillColor=none;fontSize=16;" parent="1" vertex="1">
          <mxGeometry x="145" y="223" width="110" height="30" as="geometry" />
        </mxCell>
        <mxCell id="uDLL2XIWMKUqhUMbjHO1-3" value="&lt;span style=&quot;font-size: 12px;&quot;&gt;Manage employee details&lt;/span&gt;" style="text;html=1;align=center;verticalAlign=middle;resizable=0;points=[];autosize=1;strokeColor=none;fillColor=none;fontSize=16;" parent="1" vertex="1">
          <mxGeometry x="135" y="315" width="160" height="30" as="geometry" />
        </mxCell>
        <mxCell id="uDLL2XIWMKUqhUMbjHO1-4" value="&lt;span style=&quot;font-size: 12px;&quot;&gt;Manage employee attendance&lt;/span&gt;" style="text;html=1;align=center;verticalAlign=middle;resizable=0;points=[];autosize=1;strokeColor=none;fillColor=none;fontSize=16;" parent="1" vertex="1">
          <mxGeometry x="140" y="502" width="180" height="30" as="geometry" />
        </mxCell>
        <mxCell id="uDLL2XIWMKUqhUMbjHO1-6" value="&lt;font style=&quot;font-size: 12px;&quot;&gt;Manage Task&lt;/font&gt;" style="text;html=1;align=center;verticalAlign=middle;resizable=0;points=[];autosize=1;strokeColor=none;fillColor=none;fontSize=16;" parent="1" vertex="1">
          <mxGeometry x="155" y="594" width="90" height="30" as="geometry" />
        </mxCell>
        <mxCell id="Mqwg8NExTjKhyK3L_w7x-1" value="admin" style="text;html=1;align=center;verticalAlign=middle;resizable=0;points=[];autosize=1;strokeColor=none;fillColor=none;" parent="1" vertex="1">
          <mxGeometry x="627" y="247" width="60" height="30" as="geometry" />
        </mxCell>
        <mxCell id="Mqwg8NExTjKhyK3L_w7x-2" value="users" style="text;html=1;align=center;verticalAlign=middle;resizable=0;points=[];autosize=1;strokeColor=none;fillColor=none;" parent="1" vertex="1">
          <mxGeometry x="635" y="334" width="50" height="30" as="geometry" />
        </mxCell>
        <mxCell id="Mqwg8NExTjKhyK3L_w7x-3" value="users" style="text;html=1;align=center;verticalAlign=middle;resizable=0;points=[];autosize=1;strokeColor=none;fillColor=none;" parent="1" vertex="1">
          <mxGeometry x="633" y="424" width="50" height="30" as="geometry" />
        </mxCell>
        <mxCell id="Mqwg8NExTjKhyK3L_w7x-4" value="attendance" style="text;html=1;align=center;verticalAlign=middle;resizable=0;points=[];autosize=1;strokeColor=none;fillColor=none;" parent="1" vertex="1">
          <mxGeometry x="620" y="524" width="80" height="30" as="geometry" />
        </mxCell>
        <mxCell id="Mqwg8NExTjKhyK3L_w7x-5" value="task" style="text;html=1;align=center;verticalAlign=middle;resizable=0;points=[];autosize=1;strokeColor=none;fillColor=none;" parent="1" vertex="1">
          <mxGeometry x="633" y="613" width="50" height="30" as="geometry" />
        </mxCell>
      </root>
    </mxGraphModel>
  </diagram>
</mxfile>
